/* XPM */
static char *a737a2659f004c87cb8e9db76c5f6a56[] = {
/* columns rows colors chars-per-pixel */
"64 64 206 2 ",
"   c #190202",
".  c #181717",
"X  c #2A0606",
"o  c #390404",
"O  c #371818",
"+  c #2B1818",
"@  c #2C2828",
"#  c #342B2B",
"$  c #373333",
"%  c #450000",
"&  c #4B0000",
"*  c #480A0A",
"=  c #540101",
"-  c #5B0303",
";  c #5C1B1B",
":  c #491A1A",
">  c #6A0101",
",  c #620303",
"<  c #7B0101",
"1  c #740505",
"2  c #671B1C",
"3  c #7B1516",
"4  c #741C1D",
"5  c #7B1B1D",
"6  c #781E21",
"7  c #4B2A2A",
"8  c #472424",
"9  c #592728",
"0  c #433333",
"q  c #4C3535",
"w  c #4A3C3C",
"e  c #423B3B",
"r  c #553434",
"t  c #593838",
"y  c #682727",
"u  c #7A2627",
"i  c #633333",
"p  c #6C3434",
"a  c #613739",
"s  c #633B3B",
"d  c #6B3A3B",
"f  c #723434",
"g  c #7C3A3A",
"h  c #773738",
"j  c #7B2E30",
"k  c #703F40",
"l  c #4B4141",
"z  c #464343",
"x  c #534242",
"c  c #5B4545",
"v  c #534C4C",
"b  c #5B4D4D",
"n  c #594748",
"m  c #5B5656",
"M  c #5E5A5A",
"N  c gray33",
"B  c #634B4C",
"V  c #684646",
"C  c #784848",
"Z  c #635B5B",
"A  c #6B5B5B",
"S  c #655454",
"D  c #7A5B5B",
"F  c #735757",
"G  c #714F51",
"H  c #6B6565",
"J  c #6D6C6C",
"K  c #676666",
"L  c #726666",
"P  c #736B6B",
"I  c #7B6B6B",
"U  c #7B6363",
"Y  c #757272",
"T  c #7B7575",
"R  c #7C7B7B",
"E  c #7D7778",
"W  c #7F5F60",
"Q  c #8B0707",
"!  c #930101",
"~  c #990707",
"^  c #8C1B1F",
"/  c #841A1B",
"(  c #971A1B",
")  c #A60202",
"_  c #A51A1C",
"`  c #B61111",
"'  c #881E21",
"]  c #961E22",
"[  c #AA1E23",
"{  c #BC1E23",
"}  c #882628",
"|  c #942427",
" . c #982729",
".. c #893839",
"X. c #943B3D",
"o. c #993334",
"O. c #9C2D30",
"+. c #A92528",
"@. c #B12025",
"#. c #BC272C",
"$. c #B82529",
"%. c #A63637",
"&. c #B63B3B",
"*. c #BA2E33",
"=. c #C80303",
"-. c #C52327",
";. c #CB3538",
":. c #F7222A",
">. c #C81D23",
",. c #AB3D41",
"<. c #8E3F40",
"1. c #C63F44",
"2. c #874949",
"3. c #974849",
"4. c #9C4F50",
"5. c #895758",
"6. c #995656",
"7. c #A74646",
"8. c #A65556",
"9. c #B55A5A",
"0. c #8B6A6B",
"q. c #876666",
"w. c #976868",
"e. c #837474",
"r. c #8A7474",
"t. c #837D7D",
"y. c #8D7B7B",
"u. c #947272",
"i. c #947D7D",
"p. c #9B7A7A",
"a. c #876F70",
"s. c #A56667",
"d. c #B76B6B",
"f. c #A67878",
"g. c #B67474",
"h. c #C64144",
"j. c #C75757",
"k. c #D35152",
"l. c #C96D6E",
"z. c #EB6C6C",
"x. c #838282",
"c. c #8D8484",
"v. c #8B8B8B",
"b. c #928484",
"n. c #9B8484",
"m. c #948B8B",
"M. c #9B8C8C",
"N. c #949393",
"B. c #9C9393",
"V. c #9C9C9C",
"C. c #A38C8C",
"Z. c #A68787",
"A. c #B88787",
"S. c #A39393",
"D. c #AB9595",
"F. c #A49B9B",
"G. c #AB9C9C",
"H. c #BA9595",
"J. c #B39C9C",
"K. c #BC9C9C",
"L. c #B49393",
"P. c #A4A4A4",
"I. c #ABA4A4",
"U. c #ADACAC",
"Y. c #B4A3A3",
"T. c #BCA3A3",
"R. c #B3ABAB",
"E. c #BCABAB",
"W. c #B4B3B3",
"Q. c #BAB4B4",
"!. c #BCBBBB",
"~. c #C48787",
"^. c #C19E9E",
"/. c #CD9090",
"(. c #F19292",
"). c #C4A3A3",
"_. c #C9A5A5",
"`. c #CBABAB",
"'. c #C5AAAA",
"]. c #D1ACAC",
"[. c #C3B3B3",
"{. c #CBB4B4",
"}. c #C2BDBD",
"|. c #CDBBBB",
" X c #D3BCBC",
".X c #D2B3B3",
"XX c #F6B3B3",
"oX c #C3C3C3",
"OX c #CBC4C4",
"+X c #CCCCCC",
"@X c #D4C3C3",
"#X c #DBC5C5",
"$X c #D3CBCB",
"%X c #DACBCB",
"&X c #D4D3D3",
"*X c #DCD4D4",
"=X c #DDDCDC",
"-X c #FDCDCD",
";X c #E2D6D6",
":X c #E3DBDB",
">X c #FFDFDF",
",X c #E3E3E3",
"<X c #EAEAEA",
"1X c #E9E6E6",
"2X c #F3F0F0",
"3X c None",
/* pixels */
"3X3X3X3X3X3X3X3X3X3X3X3X3X3X3X3X3X3X3X3X3X3X3X3X3X3X3X3X3X3X+XoXoX!.oX3X3X3X3X3X3X3X3X3X3X3X3X3X3X3X3X3X3X3X3X3X3X3X3X3X3X3X3X3X",
"3X3X3X3X3X3X3X3X3X3X3X3X3X3X3X3X3X3X3X3X3X3X3X3X1X=X&X&X!.+XY.Q.Q.!.W.W.W.!.!.Q.U.3X3X3X3X3X3X3X3X3X3X3X3X3X3X3X3X3X3X3X3X3X3X3X",
"3X3X3X3X3X3X3X3X3X3X3X3X3X3X3X3X3X3X3X3X3X1X=X&X&XC.*Xf $X+X..J.f !.!.Q.S.p M.I.I.U.U.P.3X3X3X3X3X3X3X3X3X3X3X3X3X3X3X3X3X3X3X3X",
"3X3X3X3X3X3X3X3X3X3X3X3X3X3X3X3X3X3X2X<X*X&XC.OX'.3.&X^ *X+X..K.1 +X!.Q.Z.s.2.G.<.C.G.G.U.V.3X3X3X3X3X3X3X3X3X3X3X3X3X3X3X3X3X3X",
"3X3X3X3X3X3X3X3X3X3X3X3X3X3X3X3X2X1X:X|.:X:X/ :XM.d.&XX.'.OXf.{.A.}.!.Q.w.A.Q.Y.3 Q.R.q.a.S.V.V.3X3X3X3X3X3X3X3X3X3X3X3X3X3X3X3X",
"3X3X3X3X3X3X3X3X3X3X3X3X3X3X3X1X,X:X,Xg #X*Xd.A.u./.$X|.+X$X$X$X}.}.}.}.}.[.W.F.s.}.I./ I.I.i.a.V.3X3X3X3X3X3X3X3X3X3X3X3X3X3X3X",
"3X3X3X3X3X3X3X3X3X3X3X3X3X1X:X*X}.9 %X].8.|.].`.:X*X$X$X$X+X}.M.M.I.W.Q.Q.Q.Q.Q.Q.G.B.6.Q.I.6 M.D B.v.3X3X3X3X3X3X3X3X3X3X3X3X3X",
"3X3X3X3X3X3X3X3X3X3X3X3X1X*X:X=X1XH. .*Xs.1X:X&X+XB.A 0 X     X X w 0 w Z P I I.Q.R.R.Q.I.D 4.0.n.B.M.B.3X3X3X3X3X3X3X3X3X3X3X3X",
"3X3X3X3X3X3X3X3X3X3X3X:X*X$XC {.:X2X/.[.:XOXc.v v 5.s.XX5.L + o - ~ o O l z t.  x b.R.R.I.Y.R.r G.B.I.i.m.3X3X3X3X3X3X3X3X3X3X3X",
"3X3X3X3X3X3X3X3X3X3X=X%XOX; `.f.[.*X=X$XB.w 5.l.XX>X(.(.w.X o * * o * w X o $ q B X O I Y.I.I.I.P.S.S.y c.B.3X3X3X3X3X3X3X3X3X3X",
"3X3X3X3X3X3X3X3X3X=X%XY.*X]. .@XE.%XQ.0 q.(.-XXXl.C m B i.'.|.*X2X[.'.m.y.A M o O O q 8 7 c.G.I.G.B.9 w.F.B.m.3X3X3X3X3X3X3X3X3X",
"3X3X3X3X3X3X3X3X=X@XQ.2 ].*XA.$XOXU Z ~.>X(.3.A a.m.W.&X,X<X<X<X<X<X<X=X&X!.W.n.A 8 q z 0 0 S B.G.I.i.F.F 4 v.M.3X3X3X3X3X3X3X3X",
"3X3X3X3X3X3X3X=XOX$X$X]._ [.*X|.c 6.-XXX9.A H P.+X&X=X,X,X<X<X<X<X<X<X,X,X,X=X&XW.v.H 7 e Y z x b.G.G.B.x S.a B.m.3X3X3X3X3X3X3X",
"3X3X3X3X3X3X&X@X%X:X*X%X].@X[.m 6.-X(.h S P.}.+X&X=X=X,X,X<X<X<X<X<X<X,X,X,X=X=X=XOXU.x.c r t.z w b.F.G.B.2 5.M.m.b.3X3X3X3X3X3X",
"3X3X3X3X3X3X$X+Xs > j n.%XI.c j.>Xj.B P I.oX+X&X&X=X,X,X,X<X<X<X<X<X<X<X,X,X=X=X&X&X+XoXV.P 7 L M w b.D.G.G.S.M.M.b.e.3X3X3X3X3X",
"3X3X3X3X3X$X|.|.%X=X%X[.{.8 d.>Xj.x E U.oXOX+X&X=X=X=X,X<X<X<X<X<X<X<X,X,X,X=X=X=X&X&X+X}.P.L 8 L v w b.D.D.S.r.4 I m.3X3X3X3X3X",
"3X3X3X3X3XOX%XE.@X%X+X XS 8.>Xl.c c.P.!.oX+X+X&X&X=X,X,X,X<X<X<X<X<X<X1X,X,X=X=X=X&X&X+X+XoXU.H 8 L v w S.D.t.p n.k M.y.3X3X3X3X",
"3X3X3X3X@X|.G w.E.|.@XS.y -Xz.7 T P.W.!.}.oX+X&X&X=X=X,X,X<X<X<X<X<X,X1X,X,X=X=X&X&X&X+XoXoX!.P.H 9 H J F S.G.F.Z.u.M.M.3X3X3X3X",
"3X3X3X3X|.[.OXg.4 OX'.8 ].(.C m G V C C 2.3.4.4.4.4.2.5.D 0.i.W.Q.c.i.i.p.f.s.4.4.4.4.2.2.G C D m L t B.l u.D.D.S.q.2 c.e.3X3X3X",
"3X3X3XOX|.[.{.@X+X@XC 7.>X6.S T Z p } ' | |  . . .| } } u } ' x.r.6 ' u } } }  . . . .| } } j T x.x.V A M V S.D.c 5.i.i.M.3X3X3X",
"3X3X3X{.|.U '.OX|.T.& g.k.y R N.N.v.Y I a.u.f.f.f.p.i.c.N.X.$.x.r.@.,.Y A D 5.5.6.6.5.D F A R N.U.P.t.8 y.l q.D.F.S.D.S.M.P 3X3X",
"3X3XoX{.|.Z.( Z. X2.u l * I N.V.P.P.t.c 9 4 u 5 6 y 2 9 A f @.x.r.$.o.n u d g <.X.X...h d P N.Q.Q.U.N.B V M G D.J.I.q.f F c.3X3X",
"3X3X|.{.J.E.OX[.^.> 4 9 ] v.N.V.P.U.P.N.v.N.N.B.V.P.V.f F p @.x.r.@.o.B } U.!.!.W.W.U.U.U.U.!.!.Q.W.P.t.9 m.; f.L.A 5.n.S.C.3X3X",
"3X3X{.M.V Z.{.{.s.! ! ~ 5.v.N.V.P.U.W.Q.!.oXoX+X+X&X&Xd F f @.x.r.@...B  .!.=X=X&X&X&X+XoXoXoX!.!.U.U.N.G ; 5 3.K.I.S.G.M.S.A 3X",
"3XW.`.|.H.8.D {.g u ) ` R v.N.V.P.U.U.!.oXv.P.&X&X=X&Xd F d +.t.i.+...B  .oX=X=X&X&X&X+X+XoX!.!.!.W.U.P.2.=.p ( K.J.F.w.G e.r.3X",
"3X[.'.n.g f.|.).i ! ) O.x.v.N.V.P.U.W.!.oXJ q b.&X=X&Xd F d T l.~.W k B  .!.=X=X=X&X+X+X+XoXoX!.W.W.U.P.u.! p ! A.K.B 6.f.M.i.3X",
"3X[.{.R.H.u.{.f.f ! ) 3.x.v.N.V.P.U.W.!.oXJ 6 ; 0.&X=Xs e.d.$./ ( &.n.P h !.=X=X=X&X&X+XoXoXoX!.W.W.U.P.B.Q +.~ 9.K.M.F 5.U C.3X",
"3X[.G.r 3 p  X2.F k d F x.v.N.V.P.U.W.!.oXJ $.{ h }.&Xw.O.6 ' -.>.' ^ s.F.oX=X=X&X&X&X+X+XoX!.!.W.U.U.P.P.( ! o.&.K.M.S.J.L.L.3X",
"3X`.`.`.{.'.{.C A 1 g M x.v.N.V.P.U.W.!.oXJ *.:...S.4.5 5 @.;.j.d.{ @.' j D.=X=X=X&X+X+XoXoX!.!.!.U.U.U.P.o.) j $.).^.H.L.L.L.b ",
"3X'._._.`.`.`.6.i < g K x.v.N.V.P.U.U.!.oXJ -.:.3 ; 5 @.#.j.f.F.U.w.,.[ | 4 G R.&X&X&X+X+XoXoX!.!.U.U.P.F.3.=...` _.^.^.K.L.L.A ",
"3X_._.`.`.].].j F p } Y x.v.N.V.P.U.U.!.oXJ +.:.>.] +.8.G.B 9 c.F.9 C M.<.] ] : t.@X+X+X+XoXoX!.W.W.U.P.V.q.p i =._.).^.^.H.H.e.",
"3X_._._.`.].].) ..=.=.Y x.v.N.V.P.U.W.!.oXJ *.:.>.2.S.}.+Xt ' c.V.6 h !.+Xn.6 ( m A.w.Y.oXoX!.!.!.U.U.U.P.B o.! =._._.^.^.H.H.a.",
"3X)._._._.].].` g f o.J x.v.N.V.P.U.W.!.oXJ #.:.] U.+X,X=Xa [ c.V.' X.oX,X&Xs [ m d.y 5.n.W.}.!.W.W.U.P.V.i.h p 2.^._.).^.^.H.0.",
"3X_.^._._._.].+.) ! ..J x.v.N.V.P.U.W.!.!.J #.:.^ Q.,X,X=Xa @.c.V.^ X.oX,X,XC [ N E.8.[ j W m.W.!.W.U.P.P.a.d 2 j ^._._.).^.^.r.",
"3X'.)._._._.`. .o.p g Z x.v.N.V.P.U.W.!.oXJ #.:.^ !.=X,X=Xa @.c.V.^ X.oX,X=XI [ m +X!.C.%.] C Y W.U.U.P.V.W p K F ^.`._.).^.^.b ",
"3XT.^.)._._.'.7.%.k s N x.v.N.V.P.U.W.!.oXJ *.:.| !.,X,X=Xa @.b.V.^ X.oX,X,Xr.[ M +X+XoXF.^ &.L U.W.U.U.V.n a L F ).`._._.).K.b ",
"3XE.^.).).)._.9.( b ..r R v.N.V.P.U.W.W.oXJ #.:.2.!.,X,X=Xa @.c.V.^ X.oX,X,Xr.[ M +X+X+X!.3 1.P U.W.U.P.v.c y * a.T.`.`.).).K.# ",
"3XY.K.T.T.)._.A.u x.4 B E v.N.V.P.U.W.!.oXJ ,.2.W !.=X,X=Xa @.c.V.^ X.oX,X,Xr.[ m +X+X+X}.3 1.H U.W.U.P.P y A b 0.`.`.`.'._.J.3X",
"3XB.K.T.).).).T.<.L k C J v.N.V.P.U.W.!.oXJ b v.!.&X=X1X=Xa @.c.V.' X.oX,X,Xr.[ m +X&X+X}.3 1.J W.W.U.P.a 1 f Q ^.{.`.`.'.).C.3X",
"3X3XK.K.T.T.T.T...A T h x x.N.V.P.U.W.!.!.P.V.oX&X=X=X,X=Xa @.c.V.^ X.}.,X,XD [ m +X&X+X!.3 1.J U.W.U.v.x L j ,..X.X{.`.`.'.e.3X",
"3X3XY.K.K.T.T.T.f.r t.; B t.N.V.P.U.W.!.oXoXoX&X&X=X=X,X=Xt @.c.V.^ X.oX|.C 4 @.M +X&X+X}.3 1.J U.W.U.Z A T 1 l. X.X{.`.`.'.v 3X",
"3X3XJ.J.J.T.T.T.T.y H B s b N.V.P.U.W.W.!.+X+X&X&X=X,X,X=Xa @.c.V.^ X.n.4 ' [ r v.$X&X+X}.3 1.H W.U.V.w Z R 3  X X.X.X`.[.).3X3X",
"3X3Xc.J.J.T.K.T.T.q.q x.y w x.V.P.U.W.!.oXoX+X&X=X=X=X,X=Xa @.c.V.^ X.q.o.O.W U.+X&X+X+X!.3 >.J U.U.x J v c 6. X X.X{.{.`.m.3X3X",
"3X3X3XY.J.J.J.T.T.Y.y H b 7 v N.P.U.W.!.oX+X+X&X&X=X,X,X=Xa @.c.V.^ X.u.<.C.}.&X&X&X+X}.q.' -.J U.v.n Z S y ]. X X X|.{.{.v 3X3X",
"3X3X3XS.J.J.J.J.Y.T.0.q x.7 n M V.U.W.!.!.oX+X&X=X=X=X,X=Xa [ b.V.^ X.G.I.oX=X=X=X&XH.p 4 >.,.E P.# M s - s.@X@X X X X{.D.3X3X3X",
"3X3X3X3XG.J.J.J.Y.T.T.g c.H 7 0 x.U.W.W.oX+X+X&X&X=X=X,X=Xa @.c.V.^ X.W.+X,X=X=X`.2.2 ] ;.f.c.v.# r 9 , o.#X#X X X X|.|.A 3X3X3X",
"3X3X3X3XF.G.J.Y.Y.Y.T.D.i m v 9 $ x.W.!.oX+X+X&X&X=X=X,X:Xs @.c.V.^ X.x.A R.OXw.9 ^ #.l.S.P.P.# q - Q Q .X#X#X@X@X X|.D.3X3X3X3X",
"3X3X3X3X3XG.J.G.J.J.Y.Y.p.r l m $ z R !.!.oX+X&X=X=X=X,X=Xa @.c.V.^ X.x.; y 7 5 *.k.~.I.U.W.# q = < < A.%X#X#X#X@X X XH 3X3X3X3X",
"3X3X3X3X3Xv.G.G.J.J.J.Y.R.q.r v K + o H }.oX+X&X&X=X=X,X=Xs @.b.F.^ X.V.F @.[ ;.g.W.W.oXF.9 w = > < g.;X%X%X#X#X@X@XM.3X3X3X3X3X",
"3X3X3X3X3X3XG.G.G.G.Y.Y.h J.q.r 8 } ) * w P.+X&X&X=X,X,X:Xa.%.b.V.' w.!.}.Z.s.I.Q.OXoXY Q ) & > > A.;X6.`.#X#X@X@X|.e 3X3X3X3X3X",
"3X3X3X3X3X3X3XG.G.G.G.G ! } G.q.- * 0 < 1 o M !.&X=X=X,X,X}.~.c.P.s.I.&X,X&XoX+X+Xv.@ y > = , > A.:X5.*.3 @X%X@X$XA 3X3X3X3X3X3X",
"3X3X3X3X3X3X3XY G.G.m., 1.f.; I.Z.; & i ; > = + v v.+X,X1X,X}.R.}.R.=X1X,X:XV.M @ q 7 % - - , `.;Xr 4.:X4.G %X%Xm.3X3X3X3X3X3X3X",
"3X3X3X3X3X3X3X3Xv.F.7 <.h.X.2 U.R.G.C % : r ( 0 e e e z Z R R W.W.N.R J l @ e q 7 % & = = C #X;X:Xn.Q ].n.W %XB.3X3X3X3X3X3X3X3X",
"3X3X3X3X3X3X3X3X3Xc.V.0.2.! Z.Y.Y.R.E.n.9 o : 8 q 0 0 b 0 e $   $ e Z L H v M o & & & y '.:X:X;X;X;Xg.` J.@XB.3X3X3X3X3X3X3X3X3X",
"3X3X3X3X3X3X3X3X3X3Xv.F.8.d.I.I.Y.R.Z.M.E.n.s o v   H Y v q A X v H Y Y H q X o % p D.%XT.5.:X;X;X;X:Xj.#XM.3X3X3X3X3X3X3X3X3X3X",
"3X3X3X3X3X3X3X3X3X3X3XT F.I.I.I.I.Y...0.R.E.E.S.U Z 0 v l b   r t x 0 0 O o i u.[.*XY.9 _ _ ,X;X=X;X*X;XF.3X3X3X3X3X3X3X3X3X3X3X",
"3X3X3X3X3X3X3X3X3X3X3X3XY P.G.P.I.G.Q I.R.R.Q.I Y.W.F.e.L I A a s U U y.S.$X$X$X%X*Xw 6 _.) L.;X=X=X*XY 3X3X3X3X3X3X3X3X3X3X3X3X",
"3X3X3X3X3X3X3X3X3X3X3X3X3X3XV.G.V.% 9.U.R.R.Q.F ! y F.Q.Q.}.OXOXOXOXOXOXOXS.L.$X$X&XOX> %.d.= F.*XQ.x 3X3X3X3X3X3X3X3X3X3X3X3X3X",
"3X3X3X3X3X3X3X3X3X3X3X3X3X3X3XE P.C.R.U.I.R.R.S._ J.Q.Q.Q.N.X 1 - a.oXOXOXS.%.+X$X&X=X..~.=X'.&Xc.3X3X3X3X3X3X3X3X3X3X3X3X3X3X3X",
"3X3X3X3X3X3X3X3X3X3X3X3X3X3X3X3X3Xc.U.I.U.I.U.0.7.Q.W.Q.Q.W.; ~.8.0.}.OXOXE.Q $X+X$X&Xf %X*XF.z 3X3X3X3X3X3X3X3X3X3X3X3X3X3X3X3X",
"3X3X3X3X3X3X3X3X3X3X3X3X3X3X3X3X3X3X3XR I.I.U.0.&.Q.W.W.W.U.% {  .Y.oXoXoXOX! +X+X$X$X&XN.z 3X3X3X3X3X3X3X3X3X3X3X3X3X3X3X3X3X3X",
"3X3X3X3X3X3X3X3X3X3X3X3X3X3X3X3X3X3X3X3X3XH v.W.E.U.W.W.W.!.& ~.( I }.oXoXR.d.+XoXP.E . 3X3X3X3X3X3X3X3X3X3X3X3X3X3X3X3X3X3X3X3X",
"3X3X3X3X3X3X3X3X3X3X3X3X3X3X3X3X3X3X3X3X3X3X3X3XN R m.P.!.!.S.!.oXG.!.!.U.V.R K 3X3X3X3X3X3X3X3X3X3X3X3X3X3X3X3X3X3X3X3X3X3X3X3X",
"3X3X3X3X3X3X3X3X3X3X3X3X3X3X3X3X3X3X3X3X3X3X3X3X3X3X3X3X3X@ $ @ @ $ @ 3X3X3X3X3X3X3X3X3X3X3X3X3X3X3X3X3X3X3X3X3X3X3X3X3X3X3X3X3X"
};
