/* XPM */
static char *a308fac6402d4557af4ce73681a95f1c[] = {
/* columns rows colors chars-per-pixel */
"32 32 215 2 ",
"   c None",
".  c #39372E",
"X  c #393935",
"o  c #312E2A",
"O  c #453D33",
"+  c #4C332B",
"@  c #723732",
"#  c #335335",
"$  c #31723D",
"%  c #644C1B",
"&  c #544B2A",
"*  c #484635",
"=  c #544C37",
"-  c #5A5338",
";  c #534A28",
":  c #695428",
">  c #416736",
",  c #776637",
"<  c #716A32",
"1  c #387040",
"2  c #4C4A43",
"3  c #474747",
"4  c #54524B",
"5  c #5A5647",
"6  c #585750",
"7  c #625F55",
"8  c #675F4A",
"9  c #686045",
"0  c #7A6C48",
"q  c #6C6755",
"w  c #786F53",
"e  c #803A2F",
"r  c #885D17",
"t  c #986D17",
"y  c #95701C",
"u  c #AA7B1D",
"i  c #905136",
"p  c #9B7524",
"a  c #956D30",
"s  c #8A7435",
"d  c #906F32",
"f  c #A97E2D",
"g  c #A47B2B",
"h  c #A86A3B",
"j  c #A47832",
"k  c #B07F29",
"l  c #847649",
"z  c #85794E",
"x  c #957C44",
"c  c #897D54",
"v  c #917C51",
"b  c #AD774F",
"n  c #837D67",
"m  c #548745",
"M  c #538E4D",
"N  c #689746",
"B  c #739844",
"V  c #738F4F",
"C  c #5E8461",
"Z  c #799678",
"A  c #B48910",
"S  c #95843D",
"D  c #979635",
"F  c #AB802F",
"G  c #A68628",
"H  c #B38425",
"J  c #B9892B",
"K  c #BD962D",
"L  c #AB8538",
"P  c #B48A34",
"I  c #B58B36",
"U  c #AC983B",
"Y  c #BB9436",
"T  c #BE943A",
"R  c #BA9938",
"E  c #B8A43C",
"W  c #C7A31E",
"Q  c #C08F28",
"!  c #C08920",
"~  c #C69929",
"^  c #C69B35",
"/  c #C59C3B",
"(  c #CB9937",
")  c #DEA425",
"_  c #D0A22F",
"`  c #CBA033",
"'  c #C3A13D",
"]  c #CBA23C",
"[  c #C6AC39",
"{  c #D0A63C",
"}  c #D5AC3C",
"|  c #D6AA37",
" . c #DAB936",
".. c #DBB43D",
"X. c #D9B237",
"o. c #CDBA3C",
"O. c #E5B334",
"+. c #E2B63B",
"@. c #E9C336",
"#. c #94854F",
"$. c #A6974C",
"%. c #BC9E43",
"&. c #AB985A",
"*. c #B49A54",
"=. c #A38A4C",
"-. c #9BB45B",
";. c #B4AD59",
":. c #9B926E",
">. c #928572",
",. c #A2946B",
"<. c #94BC6A",
"1. c #93B06C",
"2. c #BAAC6C",
"3. c #C19B43",
"4. c #CC9154",
"5. c #C5A343",
"6. c #CBA644",
"7. c #CEA846",
"8. c #CBAB4D",
"9. c #D3AC45",
"0. c #D9AE42",
"q. c #D3AD4B",
"w. c #D2A743",
"e. c #C8B646",
"r. c #D5B146",
"t. c #DCB545",
"y. c #D5B14C",
"u. c #DAB24C",
"i. c #DBBA4C",
"p. c #C7A95B",
"a. c #D5AE54",
"s. c #D3AC5E",
"d. c #D7B554",
"f. c #D9B354",
"g. c #DCBB54",
"h. c #DCBB5B",
"j. c #D6B45C",
"k. c #CCB150",
"l. c #E4BB43",
"z. c #E1BE53",
"x. c #CB9676",
"c. c #C7B269",
"v. c #D8B968",
"b. c #C7B479",
"n. c #CFA86E",
"m. c #E8BE67",
"M. c #A1C17B",
"N. c #DEC15B",
"B. c #DEC054",
"V. c #EDC54B",
"C. c #EBC541",
"Z. c #F0C84C",
"A. c #F7D54E",
"S. c #E1C154",
"D. c #E3C55C",
"F. c #E5CA5E",
"G. c #EBCC5D",
"H. c #FAD353",
"J. c #FADB5B",
"K. c #E7D34C",
"L. c #F6E14B",
"P. c #DDC167",
"I. c #DAD071",
"U. c #E2C566",
"Y. c #E6CC63",
"T. c #E7C96A",
"R. c #ECD36B",
"E. c #EBDA6A",
"W. c #E8D264",
"Q. c #FBDF6C",
"!. c #E4C271",
"~. c #E4CC75",
"^. c #EAD377",
"/. c #F2DE77",
"(. c #EDE26E",
"). c #EEE371",
"_. c #F5E379",
"`. c #A89E8F",
"'. c #96BE89",
"]. c #A9B59A",
"[. c #BAB2A6",
"{. c #C8B788",
"}. c #C0A49E",
"|. c #CFB1AB",
" X c #B4C697",
".X c #A2C2A2",
"XX c #D8C388",
"oX c #DCC997",
"OX c #ECD685",
"+X c #E7D681",
"@X c #E9D79D",
"#X c #F1DC99",
"$X c #F0DB86",
"%X c #F6E688",
"&X c #F5E494",
"*X c #F6E29A",
"=X c #F7E89B",
"-X c #D5C7A6",
";X c #C9C3BA",
":X c #DBCABC",
">X c #D2C9AB",
",X c #EDDEAC",
"<X c #E6D7A6",
"1X c #E6DCB9",
"2X c #F7E9A7",
"3X c #ECE2BC",
"4X c #F3EAB9",
"5X c #DDDDD4",
"6X c #D0CAC1",
"7X c #E5DAC3",
"8X c #EEE5C4",
"9X c #E6E3C2",
"0X c #E4E4D9",
"qX c #EBEBE4",
"wX c #F2F1EC",
/* pixels */
"                      } 0.l.V.D.R.^.~.Y.w.                      ",
"                  T l.Z.H.Q.Q.Q.%X%X%X%XQ.H.+.                  ",
"              I } t.G.R.Y.D.D.D.Y.R.Q.R.G.V.H.A.X.              ",
"            Y ] g.N.q.7.w.9.a.q.0.g.D.Y.E.Y.t.+.V.}             ",
"          I / g.6.' 7.w.w.r.g.S.z.z.z.G.W.(.E.i._ } /           ",
"        L T y.^ 6.7.q.S.^.2X4X8Xx.4.4.q.t.G.(.E.N.| ] Y         ",
"      j P 6.] 7.7.y.~.>X5XwXqX0X8X,X7X}.x.3.X.Q._.U.0.Y f       ",
"    a f ^ / y.9.q.XX6X6X@Xv.I s @ e b x.<X|.b _ E.&Xd.r.F k     ",
"    g P ( q.q.{ {.;X>X;.& o . = =.= o + i v.:Xb ` &X*Xy.5.f     ",
"  L f J w.z.( n.[.-Xx o O O : , < + * * @ e s.:Xh h.2X~.g.P J   ",
"  / H / f.w.3.`.|.,.& v ^ ..K.L.C.C.O.p X . @ m.|.%.#X&Xy.q./   ",
"j ] H a.j.( ,.`.I.O l v.k.Y K W A } O.) p l - i ,Xb /.#Xv.U.} Y ",
"3.] Q s.f.5.>.b.= 3 4 w j /  .o.[ ..O.) u 6 4 + s.}.j.*XU.F.9.^ ",
"5.^ 3.s.f.*.>.s.X n q 6 s 3. .$.9 $.O.) u v = - h 7Xj ^.!.g.z./ ",
"0.Q 7.s.z.=.>.;.- c c.:.s.'  .e.S r.O.) k = 6 9 @ #Xb T.!.h.F.} ",
"y.Q h.s.T.v >.v - q q w *.6.@.K.J.C.O.) : 7 7 X i #Xb y.!.f.G.t.",
"r.Q m.s.R.> b.$ * ,.2.,.#.G K y R E  .! % 3 4 2 &.wX8Xw.!.g.F.} ",
"9.J j.s.z.N b.$ 9 z v.:.j.K o.% < 5...r t #.*.& %.wX<Xd.!.U.F.0.",
"5.^ z.s.f.B :.N * w q q s R  .; . =...r t 0 c & v.wX~.m.!.Y.z.{ ",
"/ { { v.a.E C -.# 0 5 0 k R  .< e.} ..r y * S.s 3XwX3.OX!.R.9.^ ",
"L 6.J U.f./ M {.M * 2 l ! /  .G A.L.C.r u 4 S h.wX7Xy.*XT.Y.6.J ",
"  / k D.d.w.D >. X$ = , J E X.U e.[ G p 2 X 3.3XwXv.OX*XU.y./   ",
"  L f / h.u.K B ].1.> = s %.$.$.$.8.x 9 - %.,XqX@XU.2X$XD.P P   ",
"    g P g.u.0.E 1.[.-.m # 9 5.l k.8.6 l v.3X0X<XF.&X=XY.5.F     ",
"    a f 5.g.r.w.e.-..XoX-.B m V c.P.<X1X0X0X<XR._.=X^.t.F p     ",
"      j P q.y.q.7.g.I.<..X9X#X<X0X5X5X0X1X+X_.)._.R.t.Y F       ",
"        L R d.9.6.7.g.R.^.<.<.'.9X<X#X$X_.).(.(.Y.} ] Y         ",
"          I / g.q.6.6.7.d.N.Y.R.E.E.R.W.E.E.R.z.` r.^           ",
"            Y ] g.D.y.7.w.9.w.0.u.d.D.W.W.D.t.+.V.}             ",
"              L w.l.G.R.T.h.z.i.g.N.D.D.D.V.A.A.^               ",
"                  / l.Z.H.Q.Q._.%X%X%X%XQ.H.{                   ",
"                      | 0.+.V.D.R.^.^.D.t.                      "
};
