/* XPM */
static char *_8485a6aa3974cbdeb30b21ca489f1b0[] = {
/* columns rows colors chars-per-pixel */
"32 32 181 2 ",
"   c #290505",
".  c #550D0D",
"X  c #521A1A",
"o  c #5A1A1A",
"O  c #620101",
"+  c #701111",
"@  c #5B2A2A",
"#  c #593233",
"$  c #722829",
"%  c #782223",
"&  c #6C3839",
"*  c #683839",
"=  c #7B3535",
"-  c #723C3D",
";  c #793D3E",
":  c #713F40",
">  c #5C4D4E",
",  c #5E5151",
"<  c #6E4141",
"1  c #614747",
"2  c #764244",
"3  c #744A4B",
"4  c #7B4545",
"5  c #645A5A",
"6  c #695C5C",
"7  c #7B5151",
"8  c #745B5B",
"9  c #7B5D5E",
"0  c #745050",
"q  c #696464",
"w  c #746B6B",
"e  c #7C6B6B",
"r  c #786464",
"t  c #737070",
"y  c #7D7474",
"u  c #7E7979",
"i  c #860505",
"p  c #A61313",
"a  c #812525",
"s  c #882929",
"d  c #9B2223",
"f  c #962627",
"g  c #892D30",
"h  c #9F2E31",
"j  c #8C3333",
"k  c #883E3E",
"l  c #913333",
"z  c #973A3C",
"x  c #9F3D3F",
"c  c #9B3434",
"v  c #AC2223",
"b  c #AD3434",
"n  c #A4393B",
"m  c #A83639",
"M  c #B73E3E",
"N  c #E4252D",
"B  c #963F42",
"V  c #B53E41",
"C  c #824444",
"Z  c #8C4243",
"A  c #864749",
"S  c #834A4C",
"D  c #894749",
"F  c #9B4245",
"G  c #9D4649",
"H  c #934A4C",
"J  c #9A484B",
"K  c #914648",
"L  c #9A4F50",
"P  c #8D5455",
"I  c #8D5959",
"U  c #835859",
"Y  c #9C5A5B",
"T  c #9C5759",
"R  c #A6494A",
"E  c #AF4E4E",
"W  c #B34648",
"Q  c #A65E5F",
"!  c #B25252",
"~  c #B55B5C",
"^  c #8E5F60",
"/  c #965E60",
"(  c #9F5E60",
")  c #8C6C6C",
"_  c #986566",
"`  c #976B6C",
"'  c #9B6E6E",
"]  c #936767",
"[  c #847575",
"{  c #8F7575",
"}  c #857B7B",
"|  c #8F7878",
" . c #967474",
".. c #9E7272",
"X. c #997A7B",
"o. c #927F7F",
"O. c #A26667",
"+. c #BB6B6C",
"@. c #AC7273",
"#. c #A57B7B",
"$. c #AB7A7C",
"%. c #A37576",
"&. c #B47474",
"*. c #CE4F54",
"=. c #C45252",
"-. c #D46A6A",
";. c #C87C7C",
":. c #D17878",
">. c #858484",
",. c #8C8282",
"<. c #8A8A8A",
"1. c #958585",
"2. c #9D8484",
"3. c #938C8C",
"4. c #9C8C8C",
"5. c #969595",
"6. c #9B9494",
"7. c #9C9A9A",
"8. c #A18282",
"9. c #A38D8D",
"0. c #AC8C8C",
"q. c #A88383",
"w. c #B38484",
"e. c #BC8383",
"r. c #B88D8D",
"t. c #A49393",
"y. c #A99696",
"u. c #A59C9C",
"i. c #AB9C9C",
"p. c #B59292",
"a. c #BA9393",
"s. c #B49B9B",
"d. c #BC9D9D",
"f. c #B79798",
"g. c #A6A5A5",
"h. c #ABA4A4",
"j. c #ABAAAA",
"k. c #B5A3A3",
"l. c #BAA3A3",
"z. c #B3ABAB",
"x. c #BBACAC",
"c. c #B5B5B5",
"v. c #BBB4B4",
"b. c #BDBCBC",
"n. c #D08383",
"m. c #C39C9C",
"M. c #CB9C9C",
"N. c #C59393",
"B. c #D09C9C",
"V. c #C4A3A3",
"C. c #CAA5A5",
"Z. c #C5ABAB",
"A. c #CBABAB",
"S. c #C3B3B3",
"D. c #CBB3B3",
"F. c #C1BDBD",
"G. c #CABABA",
"H. c #D2B6B6",
"J. c #D2BCBC",
"K. c #DBBBBB",
"L. c #E1A2A2",
"P. c #C4C3C3",
"I. c #CBC3C3",
"U. c #CECECE",
"Y. c #D3C3C3",
"T. c #DAC3C3",
"R. c #D3CCCC",
"E. c #DBCBCB",
"W. c #D5D5D5",
"Q. c #DBD5D5",
"!. c #DCDBDB",
"~. c #E3C3C3",
"^. c #E1CCCC",
"/. c #E2D6D6",
"(. c #E3DDDD",
"). c #EADCDC",
"_. c #E2E2E2",
"`. c #EAEAEA",
"'. c #E8E5E5",
"]. c #F0EFEF",
"[. c None",
/* pixels */
"[.[.[.[.[.[.[.[.[.[.[.[.[.!.R.U.P.c.P.c.[.[.[.[.[.[.[.[.[.[.[.[.",
"[.[.[.[.[.[.[.[.[.[._.Q.T.m.Q.A.0.v.a.x.l.c.j.[.[.[.[.[.[.[.[.[.",
"[.[.[.[.[.[.[.[.'.E._.m.p.^.Q.E.F.F.v.F.p.f.j.u.7.[.[.[.[.[.[.[.",
"[.[.[.[.[.[.(.(.D.T.K./.Q.u.[ r 1.7.b.x.v.v.x.0.t.5.[.[.[.[.[.[.",
"[.[.[.[.[.Q.Y./.].).z.g.U.).9.  i @ , q { ,.z.h.u.9.7.[.[.[.[.[.",
"[.[.[.[.W.J.(.H.F.z.`.Y.7.3.P.`.`.R.j.e , r y i.h.2.2.5.[.[.[.[.",
"[.[.[.R.Q.Q.K.Y.v.~.4.3.U._.'.`.`.'._.!.F.5.y <.i.h.t.t.6.[.[.[.",
"[.[.[.Y.d.D.y.K.L.t c.U.!._.'.`.`.`._.!.!.U.j.,.>.4.i.u.X.6.[.[.",
"[.[.R.G.Q.E.v.B.u j.P.W.Q._.'.`.`.'._.!.W.U.P.j.,.7.t.t.u.6.[.[.",
"[.[.I.J.S.#./.t # % f v d a $ 9 9 ; Z f v d % & >.u.,.y.2.4.4.[.",
"[.G.v.G.A.&.w <.7., = c z & 2 H J - * j b l 1 7.z.4.>.4.z.9.3.[.",
"[.G.x.R.! s e 5.j.j.j.c.F.) & H J 4 #.W.W.P.P.b.c.j.2.7 t.i.u.[.",
"[.S.r.S.R p >.7.g.c.7.6.!. .& P ] 3 $.!.W.W.P.b.c.j.V k l.0.t.1.",
"x.k.q.C...A >.5.j.c.5.h i.2.T h m ` i.!.W.U.P.P.c.j.Y c $.z.i.2.",
"x.A.D.A.; e >.7.g.c.5.N D G M ~ Q E K v.W.W.P.b.c.j.#.b &.d.f.t.",
"x.C.A.:.I A >.5.j.c.5.N V a.e U 7 _ w.g #.m.P.b.c.j.u.k =.M.f.9.",
"l.C.A.-.l r >.5.j.c.3.N %.(.| K A $.(.F ..R ' h.c.j.j.8 4.V.m.9.",
"z.V.C.;.&.r >.5.g.c.5.N $._.| J A $._.G 7.G.B U c.j.u.s.4.A.V.s.",
"i.m.V.M...r >.5.g.c.5.*.i._.{ J A $._.G 7.U.O./ c.j.} 5 t.A.V.t.",
"[.d.d.V.X.9.t 5.j.c.g.7.W.(.| J A $._.z 7.U.O./ c.j.8 4 A.A.Z.4.",
"[.k.l.l.8.4.w 5.g.b.P.U.!._.| J A ( H B z.U.O.( c.3.b.I H.D.Z.[.",
"[.t.s.l.f.3.} <.g.c.P.U.W._.| J A Z &.v.W.I.L B c.5.w l.J.H.x.[.",
"[.[.s.s.l.0.5.t g.c.P.U.!._.| J A _ R.!.N.n n | q [ _ Y.J.G.z.[.",
"[.[.u.s.h.k.} 5 u j.P.U.W._.| J A : 2 H m +.x.t o l E.T.J.J.[.[.",
"[.[.[.i.k.k.9.} 3 $ j.W.Q._.4.Y D X.` ~ A.F.W X % K.E.E.Y.[.[.[.",
"[.[.[.5.i.` E 2.S = + 9 b.(.W.s.9.Q._.b.5.0 O Z S.B.r.E.J.[.[.[.",
"[.[.[.[.5.1.! 9.k.| - - y >.t y 7.5.,.6 X . 0./.E.+.S.v.[.[.[.[.",
"[.[.[.[.[.6.p.h.z.s.x.) u g.4.> ,.3.> 1 8.G.;.(./.T.v.[.[.[.[.[.",
"[.[.[.[.[.[.6.h.4.w.z.u.@.h.5.6.t.u.F.T.Q.' n.l.Q.z.[.[.[.[.[.[.",
"[.[.[.[.[.[.[.[.g.z.j.z.e.b.F.P Y I.U.N.R.Z.(.I.[.[.[.[.[.[.[.[.",
"[.[.[.[.[.[.[.[.[.[.6.j.l.c.b.P r.F.U.N.U.v.[.[.[.[.[.[.[.[.[.[.",
"[.[.[.[.[.[.[.[.[.[.[.[.[.g.7.g.j.u.c.[.[.[.[.[.[.[.[.[.[.[.[.[."
};
