/* XPM */
static char *_cfa2748bd08487ad7a5a0e90bf2e1d6[] = {
/* columns rows colors chars-per-pixel */
"64 64 237 2 ",
"   c None",
".  c black",
"X  c #0E0C06",
"o  c #1A170A",
"O  c #211E0D",
"+  c #28230B",
"@  c #3D3302",
"#  c #292512",
"$  c #312D15",
"%  c #3A3519",
"&  c #3B3820",
"*  c #473D08",
"=  c #433A14",
"-  c #453D18",
";  c #4F440A",
":  c #584B0D",
">  c #4A4217",
",  c #4C441B",
"<  c #47411E",
"1  c #5A4D13",
"2  c #544A19",
"3  c #5D5217",
"4  c #5E510D",
"5  c #66580B",
"6  c #6A5C15",
"7  c #695E1D",
"8  c #655918",
"9  c #6E621A",
"0  c #72641A",
"q  c #7C6D1B",
"w  c #776816",
"e  c #7D6D17",
"r  c #4B4422",
"t  c #544C25",
"y  c #564E27",
"u  c #59532C",
"i  c #58522A",
"p  c #5E5831",
"a  c #655C28",
"s  c #635D32",
"d  c #6D6223",
"f  c #6C622C",
"g  c #716624",
"h  c #756924",
"j  c #7A6E2C",
"k  c #766A28",
"l  c #7E722C",
"z  c #7E7125",
"x  c #6B6433",
"c  c #746B33",
"v  c #766D34",
"b  c #7D7234",
"n  c #7D743C",
"m  c #77703B",
"M  c #7C7540",
"N  c #866B16",
"B  c #8D7315",
"V  c #8C721B",
"C  c #87751A",
"Z  c #947B15",
"A  c #947C1B",
"S  c #947A1B",
"D  c #8C7421",
"F  c #8B7A24",
"G  c #83752C",
"H  c #8B7C2B",
"J  c #847526",
"K  c #947C24",
"L  c #947C29",
"P  c #967B24",
"I  c #817633",
"U  c #867A34",
"Y  c #897D34",
"T  c #847A3C",
"R  c #867B3C",
"E  c #937F31",
"W  c #857C42",
"Q  c #867D41",
"!  c #9C841D",
"~  c #97801A",
"^  c #A7891C",
"/  c #B2911D",
"(  c #9C8423",
")  c #95832E",
"_  c #9A822B",
"`  c #9C8A2C",
"'  c #998524",
"]  c #8C8036",
"[  c #8D823A",
"{  c #928434",
"}  c #9E8631",
"|  c #9D8C35",
" . c #92863B",
".. c #95893D",
"X. c #9B8C3C",
"o. c #978837",
"O. c #9E903D",
"+. c #A38C24",
"@. c #A28B2A",
"#. c #A88924",
"$. c #A79129",
"%. c #AA942C",
"&. c #A99326",
"*. c #B49727",
"=. c #A38C33",
"-. c #A38F3A",
";. c #AA9533",
":. c #AE9932",
">. c #A5933B",
",. c #AA953A",
"<. c #B29C34",
"1. c #B39E3A",
"2. c #BB9D31",
"3. c #BBA22C",
"4. c #BBA434",
"5. c #B6A23B",
"6. c #BAA53D",
"7. c #BBA63A",
"8. c #CEA71E",
"9. c #C39B24",
"0. c #C6A726",
"q. c #D6B72A",
"w. c #C5AB36",
"e. c #CCB339",
"r. c #D6B938",
"t. c #D6AB26",
"y. c #E3BB36",
"u. c #CB9F1F",
"i. c #D7C33A",
"p. c #EDC92E",
"a. c #8B8244",
"s. c #8D844A",
"d. c #958B43",
"f. c #998E43",
"g. c #948B4C",
"h. c #958A47",
"j. c #9D9143",
"k. c #9C934C",
"l. c #9E9550",
"z. c #978E51",
"x. c #A29444",
"c. c #A69945",
"v. c #AC9B45",
"b. c #A2964B",
"n. c #A5994B",
"m. c #AA9D4B",
"M. c #AB9743",
"N. c #B19C43",
"B. c #A09750",
"V. c #A59B53",
"C. c #A99E54",
"Z. c #A69C58",
"A. c #AFA14D",
"S. c #B4A344",
"D. c #BAA543",
"F. c #BDAA44",
"G. c #B4A34B",
"H. c #BCAB4C",
"J. c #B9A64C",
"K. c #ACA154",
"L. c #ADA35A",
"P. c #B2A554",
"I. c #B6A954",
"U. c #BCAD53",
"Y. c #B1A75C",
"T. c #B5AA5D",
"R. c #BAAD5B",
"E. c #BEB15C",
"W. c #BFB156",
"Q. c #B9AE61",
"!. c #B7AC60",
"~. c #BDB263",
"^. c #C1AE4A",
"/. c #C2AE46",
"(. c #C4B24D",
"). c #CAB545",
"_. c #D4BD48",
"`. c #C3B354",
"'. c #C8B654",
"]. c #CBBA55",
"[. c #C3B45B",
"{. c #CCBC5B",
"}. c #C7B85C",
"|. c #D0BF5C",
" X c #C1AE53",
".X c #C1B664",
"XX c #C5B965",
"oX c #CBBD63",
"OX c #C5BA69",
"+X c #CABE6A",
"@X c #D0BF61",
"#X c #DBC54A",
"$X c #D2C15E",
"%X c #D9C656",
"&X c #DED253",
"*X c #E6CE48",
"=X c #E8D34A",
"-X c #F3DA46",
";X c #E6D856",
":X c #E0CB56",
">X c #F4E749",
",X c #FBF94B",
"<X c #EDE553",
"1X c #F2EA59",
"2X c #F6F251",
"3X c #CEC26C",
"4X c #CFC164",
"5X c #D4C463",
"6X c #DACA65",
"7X c #D2C56C",
"8X c #DCCC6B",
"9X c #D7C869",
"0X c #DFD16F",
"qX c #DDD063",
"wX c #D6CA72",
"eX c #DACD73",
"rX c #D2C671",
"tX c #DED174",
"yX c #DED278",
"uX c #CFC470",
"iX c #E5DA6D",
"pX c #E3D473",
"aX c #E6D877",
"sX c #E2D579",
"dX c #E6D97A",
"fX c #E9DC7B",
"gX c #E9DC74",
"hX c #E2CF65",
"jX c #EDE667",
"kX c #F8F569",
"lX c #EDE379",
"zX c #F2EC76",
"xX c #F3ED70",
"cX c #EEE181",
"vX c #F8F486",
"bX c #F4EA84",
"nX c #EDDF80",
/* pixels */
"                                                  N N N N B B Z Z S B B B B N                                                   ",
"                                            N B Z Z Z B Z Z B B Z B S S S A ^ A A V                                             ",
"                                      N B Z Z Z Z Z ^ B / u.A ^ u.^ P 9./ V / #.P ^ +.P S                                       ",
"                                  S Z Z S S / ^ / t./ A P S P V P V S S P S *.u.#.#.9.( +.( K                                   ",
"                              K S Z Z #.P t.0.( P E J 0 G N q Y H L P P P P P L P ( 2.t.@.9.#.+.'                               ",
"                            A Z Z #.y./ 0.@.L N w 8 N 6 ..L 5 h E L L L L E 0 Y J L L @.*.=.r.%.&.@.                            ",
"                        @.Z A #.*.p.*.=.N q g H 5 M.D 5 o.H K k E =.} =.} } 6 o.a q g G } =.:.y.<.0.$.=.                        ",
"                      @.Z A w.2.y.=.J Y N 8 7  .6 N.Y 6 Y J J Y =.=.=.=.=.F 6 { E 4 m.I z I } ;.e.N.r.%.=.                      ",
"                    #.A @.y.w.t.-.w 9 g } 1 c.8 N h E =.-.>.>.-.-.-.-.,.-.P N -.w 9 m.E 1  .k o.-.w.N.*X%.;.                    ",
"                  =.Z =.-X9./.E 7 D : Y g h { x.-.M.M.E L P L V V V L P =.M.M.M.H 9 k w 8 c.{ 3 I -.<.D.=X:.;.                  ",
"                ;.Z ;.-Xw.D.0 9 k I N G G E N.M.E P N D E j.x.x.j.x.N.U D N D L M.N.-.w J { 7 k d D N.N.^.<X<.<.                ",
"              1.Z ;.>Xw.1.h L 6 E a G f.N.N.} D E f.aXfXpXpXpXpXpXpX8X8X8X+X[.E D P M.N.-.q 0 k Y N.N.D.N. X<X<.1.              ",
"            J.Z ;.>Xe.^.0 0 M.X.g k M. X-.P U .X[.wXaXaXpXpXpXpX8XpX0X@X8X@X@X9X XX.P =.N.N.=.7 m.U.>.a c.D.'.<X<.6.            ",
"            #.+.1Xr.J.h J * x.g A.J.N.E E sXfXfXdXdX+XaXaXpXpXpXpX8X0X8X8X8X X6X5X5X}.U } N. Xm. X XN.0 d x.G.|.<X5.J.          ",
"          <.^ ;X_._.q J ; G l U  XJ.=.}.cXnXnXdX+XaXaXaXaXpXpX0XpX0X0X8X8X8X6X9X9X{.}.5X X} M. X[.E 9 d f.-.U.^.$X-X6.          ",
"         XA _.:X:Xx.H ; f.7 -.[.N.f.M.nXyXyXfXfXeXdXaXaXpXpXpXpX8X0X8X.X8X6X9X9X5X5X|.|.|.|.X.N.[.E 0  XH a j [.%X5Xr.^.        ",
"        $.:.%X>Xc.: x.j.k U @XJ.M.Q.v.fXnXfXfXdXfXeXdXpXpXpXpXtX0X0X8XI.8X9XyX6X5X5X$X$X$X$X].O.N.|.oXq 7 f.g m.`.jX%X5.        ",
"      ^.~ |.,X5X9 q 8 n.[.5X}.N.I a a Q n T s.W s.g.s.s.W T b b.W.v b b b T T Q Q a.a.Q n b v l x. X+XN 0 8 A.5X@X'.xX).H.      ",
"      +.1.kX;XN.) m.x.3 c.@XU.OX!.- . . . . . . . . . . . . . k x.. . . . . . . . . . . . . O O.[.G.}.}.{ oX7XoXP.@X8XxXw.      ",
"    oX~ jX;X0X7 d b.8XXX7X`.OX+XfXwXC.P.Y.T.!.Q.L.!.Q.T.z.t . c x.. > n.m.m.A.K.K.C.P.K.b.x.A.].J.J.[.@XwXU.>.g a  X{.aX-X'.    ",
"    5.:.gX;X,.5 h m.4X8X3X!.Q.nXnXnXdX1 + $ $ % = & % $ i y . c  .. 2 2 + + $ $ % % & % % ] `.].'.|.C.{.eXq 9 j I [ 5XlX6X6.    ",
"  tX~ 5XjXiX{ P.f.d j.eXOXuXnXnXyXsXsX3XI T Q Q s.s.W & 2 t . k X.. 2 > 2 x.c.A.K.K.C.n.j.$XW.`. Xx.H.[.8XR.U.b.f.m.7X$XbX).5X  ",
"  ].! zX2X7Xq g wX~.7XeX~.sX~.nXyXyXrXsXeXyX!.eXeXeXeXy r t . c f.. t > , 4X4X4X}.{.}.I.'.W.W.W.^.H.H.x.9XdXm.F h 3 k.5XbX1X].  ",
"  6.D.vX%Xo.0 7  .f.aX8XyXwXrXnXeXeXeXyXeXeXeXeXwXwXwXy , t . f X.. , > , oX}.}.}.}.[.[.`.`.H.U.U.J.H.J.+XpX>.6 ..b.l pXpXxX_.  ",
"  +.{.iXcXO.G.4XL.T.dXOXwXrXyXwXwX~.+XwXwXrXT.R.rX3X7Xy , t o I f.o , > , XX}.[.E.[.W.U.I.U.H.G.G.G.A.S.n.dXwX4 A.3Xl.wX6XbX5.8X",
"aXZ lX1XlXe G f. .lXgXwXrXuXOXrXuXuXuXuXY.3XX.o l.+X+Xt , c h.Q m n.k > > E.W.R.U.E.U.U.G.I.I.A.A.A.S.S.>.aXfXF q d : R.6XvX&X9X",
"5X@.vXkXG.4 g C.b.cXdXuXuX+X+X3X+X+X+XOXOXOXd.. o Q .Xi v C.t . . % B.n a R.b.P.P.I.G.P.G.A.A.A.A.S.v.c.x.7XcX .J x.U ..tXlXkX$X",
"(.;.vX%XG.J l j k.cXyXOXOXOX~.~.~.~.OXL..X.X[ . . c ~.V.n O . X % . X x m.C.P.I.P.P.Y.A.A.A.c.c.c.j.x.>.x.T.lXI.h 4X~.R.fXpXqX/.",
"(.^.bXhXx.) lXd.R.lX+XQ.~.Q.~.Q.~.Q.Q.~.Q.Q.[ . . c j., . . $ Q B.s X . $ W m.C.m.m.V.c.c.c.j.j.O...j.X.O.d.lXcX5 8 [ l lX8XlX#X",
"5.(.vXgXH J R.j P.nXOXY.L.!.T.L.Y.Y.L.L.L.L.] . . t o . X f n d.R a g.r . . r  .d.j.k.j.j.j.j.d.X.X.......b cXfX! G ..g fX9XxX*X",
"&.(.jXfXO.k b [ XXfXQ.k.Z.Z.Z.L.Z.L.Z.L.K.l.b . . - . $ T 3 . T I . x l.c O . o a j.f.d.d.....d... . .[ [ b nXfXw G B.K.dX5XiX/.",
"&.$X6XfXaXgXlXaXdXdXcXY.V.V.B.B.l.l.l.l.l.l.b . . , a d.k.% . T k . u f.f.a.i . % n m  .d. . . .[ [ ] ] Y ] dXgXgXaXaXfXaX5XgXr.",
"$.6XxXgXaXaXdXdXdXsXyXV.k.g.k.k.f.k.a.f.k.k.l . . p k.d.d.= . T j . i d.d. .b . = c X s  .R [ [ [ ] U ] U [ yXaXaXaXpXaXaX$XzX-X",
"&.(.kXpXR.$ p M iXiX~.k.f.k.k.k.k.k.V.k.k.l.l . . s d.h.d.= . b j . i d.a.d.n . % v X . $ b [ [ ] ] ] ] ] k.pXwXx x K.pXpX5XjX).",
":.F.qXpX, j M t !.tXT.k.k.k.k.k.z.k.k.k.k.k.l . . f f.f.f.= . R k . u d.X.a.[ . =  .v # . o i ] [ [ ] n ] !.0Xi v a.O XXpX|.6X).",
"F./.lX$X3 d M m Y.0X.XB.B.B.B.B.l.l.k.l.k.k.b . . s k.k.k.= . T j . u a.d.d.T . % d.a.T r . = ] [ ] [ ] [ [ 0X3 c W v K.eX$XjX<X",
"F.:.zX%Xa.= n < 0XwX4Xl.l.V.z.z.l.l.B.B.l.l.b . . f k.k.k.= . R l . u f.f.d.n . = a.d. .f . =  .[ [ [ ] ] n.0Xx f g.o 5X0X$XkX_.",
"].$.lX#X9X4XE.qXqX8X5XV.V.V.V.K.V.V.B.V.l.z.G . X n Z.k.k.= . R b . u j.k.f.R . = h.f.d.s . %  .[ [ [ [ ] U.9XqXg.m oX8X$X5X%X].",
"5X~ iX_.9X4Xm m K.9X5XR.V.Z.Z.Z.V.V.V.K.l.V.b o n a.b.V.k.= . R l . u k.k.k.R . = h.f.X.f . = a. . . .[ [ $X6XP.n.oX6X6X|.%X<X].",
"  ( <XqX9Xr 9 T $ 4X$XW.L.L.L.L.L.L.Z.K.K.K.U a.V.K.V.V.m.- . Q I . u k.f.k.R . = f.f.k.x . = .. .[  . .f.$Xx % z.$ 5X6X].jX>X{.",
"  <.6.kX].2 k n T k.5X`.L.L.L.L.L.L.L.l.L.L.Z.Z.K.K.K.V.Z.% . R I . u b.k.b.x . = j.j.V.x . - X...X.j...J.$X- a T I j.5X'.;X).  ",
"  F.$.6X_.u d T $ '.$X$XE.Y.Y.Y.Y.Y.Y.Y.L.Y.Y.Y.L.L.K.K.K.> .  .I . p V.f.t . . - b.x.x.x . - f.d.X.k.[ '.5X- a W , U.].{.:X#X  ",
"  $X! ;X#X$Xv v I.$X$X].H.T.T.!.T.T.Y.Y.Y.T.Y.Y.Y.L.Y.L.m.> . a.U . u g.# . . < f.k.b.b.x . = j.j...X.N.].|.`., s  .|.`.&X,X'.  ",
"    :.7.jX).].{.G.x b $X'.H.Y.L.Q.Q.Z.T.Q.Z.T.T.T.R.Y.L.L.= . a.U . p n . o x m.n.j.G.b.c . = j.j.O...^.{.f. X|.{.{.{.(.1X#X    ",
"    F.+.;X*X{.U.+ [ z.s $XF.T.~.~.~.Y.~.Q.Q.Q.Q.z.T.T.T.I.> . Q Y . p M % g.A.A.m.m.n.d.r . - c.x.g.D.H.# h.# R ].].(.%X#X_.    ",
"      $./.&X/.X.5 v T 3 W.W.S.T.Z.~.~.~.~.~.~.~.g.R.~.E.R.- . h.Y . p l.b.K.Y.Y.K.K.M O . . 2 c.f.,.F...1 v v - '.'.^._.2X`.    ",
"      F.+.&X/.v.o g W t ).W.6.S.yXQ.Q.Y.~.~.T.OXz.L.~.E.~.- . h.[ . p I.R.Y.P.P.f.y . . o x c.v.| 6.(...: b m 2 (././.2X_.      ",
"        $.e.;X5. .f f F.).F.W.1.A.nXlXL.OXOXOXOX.X~.g.XX~.> . f. .. p j b I.I.v o . . i h.f.Z.x.5.(.(.(.t m < S.(.F.,X:X        ",
"        D.+.=X=XF.F.^.^.^./.] v.<.:.lXlXZ.~.4X~.3X~.~.XXT.> . f.[ . p d X i < . . # Q A.P.f.S.<.S.j.D.(.H.(./.(.6.=X&X).        ",
"          :.:.=Xi.F.F.F.F.S.8 1 c.<.:.4XiXwXV.~.OX3XXX4XXX> . k.... p j . . . . u m.n.P.A.` :.O.7 @ Y F.F.F.F.F.e.#X=X          ",
"          6.$.w.=Xw.F.F.F.0 * Y 3 { 1.%.A.0XqX$Xj.~.3X3XT., . k.Y . p }.l O O T W.W.W.O.$.:.' ; h g * ) F.D.F.7.e.,XD.          ",
"            5.+.).*X4.6.w @ 8 j * H 5.5.$.' S.W.$X .~.3X4Xk.# j.... M }.E.A.A.W.W.A.` +.5.5.) : 3 O.2 9 6.6.7.w.,XF.            ",
"              :.+.#Xr.4.C * { 9 h :.5.,. .:.+.+.| ] 4X3X4X3XA.k...a }.XX4XW.W.O.' ' :.c.5.5.5.z @ G 3 J 7.5.7.,X).              ",
"                %.$.i.e.5.` 3 @ [ 1.5.` * G <.:.+.! ' | S.A.W.j.oXoXc.v.| ' ! +.%.~ 9 l <.<.5.5.0 1 { 5.:.4.,X).                ",
"                  %.&.i.e.4.;...:.<.<.J * O.<.<.e ` :.+.! ! ! ! ! ! ! +.+.%.<.:.<.5 ; * O.<.<.<.) | 5.<.4.,X).                  ",
"                    %.&.i.e.3.:.:.<.' 5 g :.:.` 4 : k l :.:.' | >.;.:.:.e 0 O.:.:.e 8 8 d ` :.:.:.:.:.3.,Xe.                    ",
"                      %.$.i.w.q.%.:.C ; l %.:.%.' 8 j.H :.%.9 ; 3 z %.:.C ; | %.%.e : G.; z :.:.%.3.w.,X6.                      ",
"                        %.$.q.3.q.:.%.` ) %.$.$.~ @ | &.&.&.w 6 l l $.$.~ @ | %.&.w : o.| %.<.%.q.r.>X5.                        ",
"                          $.@.3.*.q.3.&.&.$.$.$.w * O.&.$.+.5 5 l z $.$.~ 1 l &.&.C ' &.%.&.^ p.p.#X%.                          ",
"                              @.%.*.q.0.*.*.$.+.~ F ` +.+.+.5 9 ) 1 C +.~ q o.+.+.%.%.+.3.3.>Xp.:.                              ",
"                                  &.:.e.*.0.q.+.&.&.&.&.! ^ ~ ' ` ` ^ +.` $.&.$.^ ^ *.p.i.*X4.                                  ",
"                                      +.&.*.i.0.&.0.&.! / ^ ' +.&.! +.^ ^ ^ ! 0.p.w.>Xe.&.                                      ",
"                                          ! &.%.<.e.i.&.i.q.^ 3.0.q.*.3.p.r.i.>X4.%.+.                                          ",
"                                                  ! ^ &.&.:.:.4.3.3.:.<.%.&.(                                                   "
};
