/* XPM */
static char *_ce49147e50943a6a8ab6c3245083571[] = {
/* columns rows colors chars-per-pixel */
"32 32 219 2 ",
"   c None",
".  c #19160A",
"X  c #1D1A0E",
"o  c #2D280D",
"O  c #2B270D",
"+  c #252312",
"@  c #2A2714",
"#  c #322D17",
"$  c #3B3515",
"%  c #37341A",
"&  c #3A320D",
"*  c #453D10",
"=  c #403A1D",
"-  c #5E510E",
";  c #4C4415",
":  c #4C451A",
">  c #4E481A",
",  c #5B4B14",
"<  c #534918",
"1  c #5B511B",
"2  c #5B4D0A",
"3  c #65560E",
"4  c #6B5C0D",
"5  c #6D5D13",
"6  c #63571A",
"7  c #70600C",
"8  c #6E6012",
"9  c #736211",
"0  c #7C6B13",
"q  c #7C6B1B",
"w  c #73661F",
"e  c #4B4724",
"r  c #4C4824",
"t  c #4C4829",
"y  c #544D22",
"u  c #534F28",
"i  c #555025",
"p  c #5C5523",
"a  c #5A552B",
"s  c #5F5A2C",
"d  c #56522C",
"f  c #5A5530",
"g  c #615A27",
"h  c #655C2A",
"j  c #655B22",
"k  c #645E33",
"l  c #6D6323",
"z  c #6B642C",
"x  c #6B662A",
"c  c #726622",
"v  c #7A6A26",
"b  c #716628",
"n  c #7A6C2A",
"m  c #746B28",
"M  c #7F7126",
"N  c #7E712C",
"B  c #6A6536",
"V  c #716A33",
"C  c #756E3B",
"Z  c #7A6E32",
"A  c #7C7434",
"S  c #7B7338",
"D  c #7A763B",
"F  c #816E0F",
"G  c #886E11",
"H  c #8D7414",
"J  c #84721A",
"K  c #8E741A",
"L  c #937B1A",
"P  c #927718",
"I  c #8B7724",
"U  c #8D7B23",
"Y  c #83752D",
"T  c #87792C",
"R  c #8D7C2B",
"E  c #867426",
"W  c #937A26",
"Q  c #967D24",
"!  c #817533",
"~  c #837C34",
"^  c #8B7D33",
"/  c #80763C",
"(  c #867B3B",
")  c #897E3C",
"_  c #907F32",
"`  c #8A7E41",
"'  c #807842",
"]  c #9C821D",
"[  c #AB8A1D",
"{  c #A7861A",
"}  c #B5921D",
"|  c #9B8424",
" . c #9A832C",
".. c #9F8A2A",
"X. c #998628",
"o. c #8C823D",
"O. c #8C8237",
"+. c #928335",
"@. c #9C8631",
"#. c #9C8A35",
"$. c #93853C",
"%. c #9B8C3D",
"&. c #978839",
"*. c #A48C25",
"=. c #A28C2B",
"-. c #AA8B24",
";. c #A99225",
":. c #A7912C",
">. c #AB942C",
",. c #B49C2D",
"<. c #BA9A26",
"1. c #A38D36",
"2. c #A59132",
"3. c #A99434",
"4. c #AE9932",
"5. c #AA963B",
"6. c #A9963A",
"7. c #B29C35",
"8. c #B19D3B",
"9. c #BAA023",
"0. c #B6A23C",
"q. c #BEA635",
"w. c #C4A427",
"e. c #C6A92B",
"r. c #CFB22E",
"t. c #D3B42D",
"y. c #DCBA2B",
"u. c #C4A934",
"i. c #CBB33D",
"p. c #D6B938",
"a. c #DCC33B",
"s. c #E3C334",
"d. c #8D8342",
"f. c #8D8649",
"g. c #918641",
"h. c #938B4A",
"j. c #998D45",
"k. c #9C934B",
"l. c #9B964A",
"z. c #A29344",
"x. c #AD9B44",
"c. c #A1954E",
"v. c #AB9D4A",
"b. c #A79A45",
"n. c #A39B53",
"m. c #A69A52",
"M. c #BBA742",
"N. c #BDA943",
"B. c #B3A34B",
"V. c #BDAB4D",
"C. c #B6A747",
"Z. c #B5B04E",
"A. c #AEA455",
"S. c #BFAE51",
"D. c #B5A956",
"F. c #BEB363",
"G. c #C2AE44",
"H. c #C1AE49",
"J. c #C9B44C",
"K. c #C4B34D",
"L. c #D7BC44",
"P. c #D6BB48",
"I. c #C1AF55",
"U. c #C3B252",
"Y. c #CAB755",
"T. c #C6B55A",
"R. c #CEBC5B",
"E. c #C8B857",
"W. c #D1BF5B",
"Q. c #D1BC52",
"!. c #C8BA63",
"~. c #DBCB4A",
"^. c #DDD14A",
"/. c #D7C655",
"(. c #DFD458",
"). c #E5CD45",
"_. c #E6D549",
"`. c #E4D35C",
"'. c #E4DB5D",
"]. c #E6D959",
"[. c #E6CF55",
"{. c #E9E15A",
"}. c #E7E45A",
"|. c #F6E75D",
" X c #F7E85C",
".X c #FEFD5C",
"XX c #F9F35D",
"oX c #CEC063",
"OX c #D4C463",
"+X c #DCCB64",
"@X c #DCCD6B",
"#X c #D3C66D",
"$X c #DFDA65",
"%X c #DAD376",
"&X c #E7DE63",
"*X c #E4D36C",
"=X c #E3DB6A",
"-X c #E5D673",
";X c #EBDC74",
":X c #E7DB76",
">X c #EBE767",
",X c #F0EB6A",
"<X c #FDFD62",
"1X c #FCFB6B",
"2X c #F5F26C",
"3X c #EFE378",
"4X c #EAE172",
"5X c #F3E57D",
"6X c #F0E97B",
"7X c #FDFC73",
"8X c #FDFC7C",
"9X c #F9F47C",
"0X c #EFEF82",
"qX c #F4F286",
"wX c #FCFA86",
"eX c #FEFD8B",
"rX c #F8F48C",
"tX c #FFFF93",
"yX c #FBF791",
/* pixels */
"                      G H H H H P P P P H                       ",
"                K H H P { } [ ;.{ [ } -.-.-.Q K                 ",
"              L P -.w.Q E 9 n 5 v W W I W -.<.<.|               ",
"          | L :.w.W G ! E 3 j.Y @.=.I c 6 !.T 7.p.,.=.          ",
"        1.L u.<.J &., D.Y _ W W W _ W _ 3 c B.E @.L.u.3.        ",
"      3.*.i.=.9 ` ^ j.Q W z.R.R.OXY.5.W W I j E ` 5.P.i.x.      ",
"      *.P.:.4 ) ) 1.5.+X;X;X-X-X-X*X@X+XW.1.1.! V.Y z./.i.      ",
"    3.J.u.4 ! ` 5.I.0X5X5X3X3X;X;X-X*X*X@X+XV.1.Y v Y b.&XN.    ",
"  U.8._.5 / ` H.b b d.h.h.h.f.o.x.! ( o.d.f.) n %.Y b k.Y.[.E.  ",
"  4.`.#.! j.I.*Xk.y r u f d % $ ; & > a k B y N Q.B.z.&.c.;XQ.  ",
"  8.{.v C D.OXeXwXv.l S f.V > $ ; ; ; A ( s O.|.,XQ.j.^ k.OX{.  ",
"H.(.G.w k.#XrXyXeXeXeXwXeXh.: % ; * p 2X1X7X2X<X X XT.F b.v.3XW.",
"0.,XU ) c.-XyXtXtXeXtXb n.h.> x x ; p 7X8X1X<X<X.X.XOXN T k.;X`.",
"M.,XE v.D.6XtXtXeXtXeX: f A.g + + a O.7X7X7X1X<XXXXX&Xj.R k.@X&X",
"N.4XF m.#XrXyXtXtXtXtX: t O O C ~ r % V >X7X1X<X<X.XXXF.0 h.@X'.",
"H.&X%.h.0X0XtXtXtXtXeX: r i N r > C h.@ s Z.1X<X<X.X<X@X$.F.+X>X",
"H.`.D.n.-XyXtXtXtXtXtX: t qX~ r > B 8Xi h + x }.<X.X2X#Xm.-X+X'.",
"0.&X; ' !.yXtXtXtXtXtX: t 0X~ r > B 8Xi > l.. x <X<X2X$.h ) OX].",
"0.}.A.c.#X3XtXtXtXtXtX: k qX~ r > B 8Xi > 7X@ x <X.X[.!.! !./.{.",
"7.>X!.1 A.OXtXtXtXtXtXm %XtX~ r > B 8Xi > 7X# l <X.XY.N n.+XW.(.",
"0.'.$.6 V R.rXtXtXtXeXtXeXeXO.r > B l.X p 7X# x <X1XB., C U.`./.",
"  u.~.v.B.U./.tXtXtXtXeXeXwXA r > B . a $X1X# x <XJ.j.S.v.Y._.  ",
"  4.'.x.< ' V.>XeXeXeXeXeXwXA e > B l.7X>XD X m `.&., $.E.J.].  ",
"  N.i.~.6 ( K.x.-X9XwXwXwX8XO.e > x Z.Z.% + A /.#.b., j.V.).K.  ",
"    4.~.N.H.C.b 6.$X7X9XwX9X~ e > p o . y S./.2.w j.V.N.G.^.    ",
"      ,.~.0.8 O.B 2.7.2X X9Xb.a ; D N A `.>.+.- T h N.0._.      ",
"      7.9.~.U h !  .O.X...5.S.$.+.V.3...U 1 4. .l $.0._.0.      ",
"        4.e.p.2.3.q z 2.0 ~ | J U | 8 #.M , o.7.1.4.s.0.        ",
"          >.,.p.,.q O.>.- l.>.7 c.4.3 &.q O.~ 4.q.s.0.          ",
"              >.r.e.>.>.5 #.;.2 l.L 9 O...:.;.s.a.              ",
"                *.4.t.9.;.;.*...:.*.*.*.9.s.a.;.                ",
"                      *.9.e.r.y.t.s.r.r.9.                      "
};
