/* XPM */
static char *_73137b6a4e940ec865b711371fa6e69[] = {
/* columns rows colors chars-per-pixel */
"16 16 199 2 ",
"   c None",
".  c #383129",
"X  c #3A3633",
"o  c #3C3C3B",
"O  c #3D3D3B",
"+  c #413327",
"@  c #4D432F",
"#  c #52472F",
"$  c #43443A",
"%  c #594D35",
"&  c #5F4E38",
"*  c #724C3B",
"=  c #754E3C",
"-  c #615935",
";  c #685D3F",
":  c #715D35",
">  c #70653D",
",  c #356441",
"<  c #434343",
"1  c #444444",
"2  c #595146",
"3  c #615B44",
"4  c #645D4F",
"5  c #4F6E41",
"6  c #767059",
"7  c #7B745C",
"8  c #7E7762",
"9  c #8D6C28",
"0  c #9A6F27",
"q  c #99712F",
"w  c #9B732F",
"e  c #856932",
"r  c #917230",
"t  c #987630",
"y  c #AA7F2A",
"u  c #857A45",
"i  c #837550",
"p  c #84775D",
"a  c #5C8056",
"s  c #6A8457",
"d  c #799160",
"f  c #B3862C",
"g  c #B08735",
"h  c #B88D33",
"j  c #B28A39",
"k  c #B88F39",
"l  c #A89230",
"z  c #A8933E",
"x  c #BF9332",
"c  c #B99532",
"v  c #BF9536",
"b  c #B3983A",
"n  c #C19A2E",
"m  c #C19736",
"M  c #C49A37",
"N  c #C49A38",
"B  c #C69F3C",
"V  c #C69E3F",
"C  c #C89D39",
"Z  c #D7A62F",
"A  c #C7A034",
"S  c #C1A535",
"D  c #CAA831",
"F  c #CEA53F",
"G  c #D3A339",
"H  c #D4AC3E",
"J  c #D6B335",
"K  c #DBB03C",
"L  c #DEB13C",
"P  c #E2AD2E",
"I  c #E3AD2E",
"U  c #EAC330",
"Y  c #ECC937",
"T  c #E4C73E",
"R  c #A3924E",
"E  c #B59E5B",
"W  c #97A356",
"Q  c #ABA346",
"!  c #8E8164",
"~  c #9C8C6D",
"^  c #9F9472",
"/  c #B38766",
"(  c #AC8E75",
")  c #A29174",
"_  c #93AA7E",
"`  c #B1A171",
"'  c #C5A043",
"]  c #C7A144",
"[  c #CCA143",
"{  c #CAA642",
"}  c #CFA541",
"|  c #CEA543",
" . c #CCA642",
".. c #C8A547",
"X. c #CCA845",
"o. c #C4A049",
"O. c #C4A34B",
"+. c #C6A548",
"@. c #CEA64B",
"#. c #CEA54F",
"$. c #D1A542",
"%. c #D0A842",
"&. c #D0AB43",
"*. c #D3AC45",
"=. c #D4AE46",
"-. c #D5AE46",
";. c #D4A64B",
":. c #C8B241",
">. c #D1B647",
",. c #DDB343",
"<. c #D8B244",
"1. c #D3B04B",
"2. c #D4B049",
"3. c #D6B04A",
"4. c #D6B34D",
"5. c #D5B34F",
"6. c #D7B44F",
"7. c #D8B64F",
"8. c #D9B74F",
"9. c #DCB84F",
"0. c #CFAD50",
"q. c #C1B050",
"w. c #D7B752",
"e. c #DAB655",
"r. c #DBB851",
"t. c #DABA52",
"y. c #DDBA51",
"u. c #DBBC57",
"i. c #D3B45A",
"p. c #D8B65D",
"a. c #DFBD58",
"s. c #DDBE5F",
"d. c #E9BE40",
"f. c #E2BF53",
"g. c #C19C61",
"h. c #D7AF6F",
"j. c #DDBD62",
"k. c #DFBF66",
"l. c #D6B76A",
"z. c #D6B868",
"x. c #E8C047",
"c. c #E8CE49",
"v. c #ECD247",
"b. c #E5C053",
"n. c #E9C553",
"m. c #EFCB52",
"M. c #E3C559",
"N. c #E2C65C",
"B. c #E4C55D",
"V. c #E2CA58",
"C. c #F0CF5C",
"Z. c #F2D05C",
"A. c #C5C261",
"S. c #DFC062",
"D. c #E0C165",
"F. c #E3C862",
"G. c #EACF62",
"H. c #E4C768",
"J. c #E0C56E",
"K. c #E8D567",
"L. c #E6D16D",
"P. c #E9D769",
"I. c #EDD66B",
"U. c #FBDC65",
"Y. c #E3C873",
"T. c #E5CB75",
"R. c #EDD97A",
"E. c #EDD97B",
"W. c #EFDE79",
"Q. c #F0E171",
"!. c #BC9387",
"~. c #BE988C",
"^. c #88A482",
"/. c #94B991",
"(. c #BBB08C",
"). c #C7A88E",
"_. c #D2AE94",
"`. c #CCAFA2",
"'. c #C4B9A3",
"]. c #B3C18D",
"[. c #C4CC84",
"{. c #DFCA8E",
"}. c #D2C89F",
"|. c #E8D481",
" X c #EEDD84",
".X c #F0DB85",
"XX c #F3DE89",
"oX c #E8D798",
"OX c #EADE9E",
"+X c #F3E58D",
"@X c #F9E788",
"#X c #CDC2A1",
"$X c #CFC6B0",
"%X c #DBD3BD",
"&X c #DFDBC8",
"*X c #E9E2CB",
"=X c #E8E5D1",
"-X c #ECE7D3",
";X c #ECE7D4",
/* pixels */
"          ,.f.U.@XE.C.          ",
"      j 9.7.6.e.B.I.G.x.d.      ",
"    g  .B 4.J.oXh.;.V.K.H M     ",
"  q m %.i.$X%X(.( !._.[ L.&.y   ",
"  f } ] '.p + @ # . * `.#.Y.'   ",
"-.x $.) 8 i b.Y U Z % = ).XXw.F ",
"C @.o.~ O 4 +.T b I t X ~.l.s.=.",
"L p.E ! < 6 0.v.>.P e 1 / g.j.n.",
"L k.W s 3 7 O.D :.A r o #X{.D.n.",
"C S.Q a $ 2 V S z c 9 > *Xz.H.*.",
"-.5.| d , & G J c.n : ` ;XT.F.N ",
"  h a.l ^.5 - u R ; ^ -X|..X..  ",
"  w X.2.q.]./._ }.&X=X+XW.8.0   ",
"    g 1.{ u.A.[.OX XQ.P.<.v     ",
"      k y.t.4.3.r.N.M.x.K       ",
"          ,.m.U.@XR.Z.          "
};
