/* XPM */
static char *_742cffad0534ecfcaf364dc903b8a41[] = {
/* columns rows colors chars-per-pixel */
"16 16 210 2 ",
"   c None",
".  c #55430D",
"X  c #53460D",
"o  c #594D13",
"O  c #5B4D15",
"+  c #50471B",
"@  c #50481B",
"#  c #685914",
"$  c #61561A",
"%  c #675A1E",
"&  c #6E5F19",
"*  c #695D1D",
"=  c #6A5C1D",
"-  c #6B5F1E",
";  c #6E6019",
":  c #635922",
">  c #685E27",
",  c #6B5F29",
"<  c #6E6121",
"1  c #6C622C",
"2  c #716421",
"3  c #766820",
"4  c #7E6F24",
"5  c #72662B",
"6  c #75672B",
"7  c #72652D",
"8  c #6E6430",
"9  c #6D6432",
"0  c #6F6838",
"q  c #706731",
"w  c #776B31",
"e  c #786C31",
"r  c #786C32",
"t  c #7E7435",
"y  c #7F7539",
"u  c #7E743A",
"i  c #856B11",
"p  c #886E12",
"a  c #8A6F17",
"s  c #897612",
"d  c #8B7817",
"f  c #8E7B16",
"g  c #81701E",
"h  c #8E7C19",
"j  c #927511",
"k  c #927E12",
"l  c #917E16",
"z  c #917F16",
"x  c #9F7F17",
"c  c #92791B",
"v  c #957918",
"b  c #826F2A",
"n  c #807021",
"m  c #8F7926",
"M  c #84712B",
"N  c #88752C",
"B  c #8E7E2C",
"V  c #907F22",
"C  c #8F7A30",
"Z  c #8E7F34",
"A  c #807639",
"S  c #827638",
"D  c #847A3C",
"F  c #857A3D",
"G  c #927F35",
"H  c #877F45",
"J  c #897D41",
"K  c #938016",
"L  c #958216",
"P  c #978316",
"I  c #968317",
"U  c #998413",
"Y  c #998516",
"T  c #9A8516",
"R  c #9D861E",
"E  c #9F8C1E",
"W  c #A08013",
"Q  c #A28215",
"!  c #A18A13",
"~  c #A98C17",
"^  c #AE8E1F",
"/  c #9E8B24",
"(  c #938328",
")  c #9F882B",
"_  c #9D8C28",
"`  c #8C803E",
"'  c #938231",
"]  c #938035",
"[  c #918337",
"{  c #9B8A34",
"}  c #908038",
"|  c #93863D",
" . c #94863D",
".. c #9E8E38",
"X. c #9D8E3C",
"o. c #A48E24",
"O. c #AC902A",
"+. c #A9952F",
"@. c #AD982C",
"#. c #AF992F",
"$. c #BB9C2B",
"%. c #A09237",
"&. c #A89131",
"*. c #A49439",
"=. c #A0903C",
"-. c #AB9938",
";. c #B79E39",
":. c #B8A02C",
">. c #C0A123",
",. c #C4A72A",
"<. c #C7AA28",
"1. c #C6A92A",
"2. c #C7AA2A",
"3. c #C3A82C",
"4. c #C7AB2F",
"5. c #C8AD2F",
"6. c #CBAD2F",
"7. c #D8B82F",
"8. c #C6AC32",
"9. c #C4AE3A",
"0. c #C9AD3E",
"q. c #D3B739",
"w. c #E5C538",
"e. c #E0C13E",
"r. c #978A44",
"t. c #998C42",
"y. c #9C8E41",
"u. c #9D8C42",
"i. c #9A8C45",
"p. c #90874B",
"a. c #978C4D",
"s. c #998D49",
"d. c #9A8F4D",
"f. c #9C914C",
"g. c #948B50",
"h. c #9E9451",
"j. c #A5994C",
"k. c #A6994C",
"l. c #AD9D49",
"z. c #B8A641",
"x. c #BAA745",
"c. c #BAA646",
"v. c #BCA843",
"b. c #BDA944",
"n. c #B2A64B",
"m. c #ABA158",
"M. c #ADA259",
"N. c #ABA15C",
"B. c #B0A356",
"V. c #B1A555",
"C. c #B9A850",
"Z. c #BCAE51",
"A. c #BCAD52",
"S. c #B6AA5F",
"D. c #BAAD5C",
"F. c #BDB05B",
"G. c #BAAE63",
"H. c #BDB164",
"J. c #BEB265",
"K. c #C1AC42",
"L. c #CFB742",
"P. c #C6B34C",
"I. c #D8BF48",
"U. c #C4B150",
"Y. c #C7B652",
"T. c #C0B157",
"R. c #C5B554",
"E. c #C6B554",
"W. c #C8B752",
"Q. c #C8B756",
"!. c #C8B758",
"~. c #CEBD59",
"^. c #CBBB5C",
"/. c #C0B260",
"(. c #C2B869",
"). c #CCC14C",
"_. c #D8CA4B",
"`. c #DFC958",
"'. c #E5C949",
"]. c #E4D047",
"[. c #E2CF54",
"{. c #E0CC5D",
"}. c #E8DF55",
"|. c #E5DC5F",
" X c #E8DB58",
".X c #E9D85D",
"XX c #ECE15D",
"oX c #D4C563",
"OX c #D9CA67",
"+X c #D8C968",
"@X c #DBCC6E",
"#X c #D5C871",
"$X c #D9CD70",
"%X c #E7D561",
"&X c #EBDE67",
"*X c #E2D371",
"=X c #E3D576",
"-X c #E3D577",
";X c #E4D677",
":X c #E4D77A",
">X c #E7D97A",
",X c #E7D97B",
"<X c #E7DA7E",
"1X c #EBDE7D",
"2X c #E8DC7E",
"3X c #E9DC7E",
"4X c #F0EB6F",
"5X c #E6DA81",
"6X c #E9DD80",
"7X c #EBDF80",
/* pixels */
"        i p j W Q x v a         ",
"      c ^ ~ T l m s R $.O.      ",
"    ) >.I n M C ] b g K ;.0.    ",
"  &.6.z G D.=X*X@XOXC.N h z.I.  ",
"c.'.U } < D g.7 $ t p.S u.( {.U.",
"x.8.j.#Xy.t.H., # [ m.A.Q.X.Z.|.",
"`.! G.7X2X2 h.1 - +XoX~.R.S._ 4X",
"XXP (.5X1X@ O = q F F.^.Y.J.E &X",
" Xo N.6X<X+ i.; y u H | E.f.r %X",
"[.5 M.6X3X* /.; A u V.w W.a.J .X",
"K.3 ` $X3X>X;X& 8 9 B.e !.6 s.}.",
"v._.X l.:X,X;X; > k.0  .d.. P.).",
"  9.L.L =.T.-X; % : r.{ %.b.].  ",
"    q.@.V ..B 4 Z ' d *.-.e.    ",
"      5.4.+.Y f n.k / #.w.      ",
"        o.2.<.,.3.1.7.:.        "
};
