/* XPM */
static char *c13a29ced94147c1fc7a337bf2f4fc96[] = {
/* columns rows colors chars-per-pixel */
"16 16 189 2 ",
"   c #471819",
".  c #531C1E",
"X  c #6E2C2C",
"o  c #782325",
"O  c #634444",
"+  c #764343",
"@  c #79595A",
"#  c #7D5C5C",
"$  c #7F6060",
"%  c #8A2F2F",
"&  c #95292B",
"*  c #A73434",
"=  c #984546",
"-  c #865757",
";  c #8A5152",
":  c #975051",
">  c #9E5151",
",  c #935C5C",
"<  c #A24E4F",
"1  c #A9494D",
"2  c #AD494D",
"3  c #A25253",
"4  c #AE5C5C",
"5  c #896D6E",
"6  c #906060",
"7  c #9C6D6D",
"8  c #827D7D",
"9  c #927171",
"0  c #947878",
"q  c #A06263",
"w  c #A56364",
"e  c #AC6161",
"r  c #B06A6A",
"t  c #A37778",
"y  c #A37E7E",
"u  c #A87B7C",
"i  c #AF7C7D",
"p  c #C06464",
"a  c #D26D6E",
"s  c #CC7272",
"d  c #CC7373",
"f  c #C17F7F",
"g  c #CC7C7C",
"h  c #DA7979",
"j  c #B17F80",
"k  c gray55",
"l  c #988383",
"z  c #9C8282",
"x  c #909090",
"c  c gray57",
"v  c #9F9999",
"b  c gray62",
"n  c #AA8484",
"m  c #A38B8B",
"M  c #A18C8C",
"N  c #AE8D8E",
"B  c #B58989",
"V  c #BB8A8A",
"C  c #A69898",
"Z  c #A29C9C",
"A  c #A59C9C",
"S  c #A69C9C",
"D  c #AE9C9C",
"F  c #BC9191",
"G  c #B49999",
"H  c #B29F9F",
"J  c #B99F9F",
"K  c #A6A1A1",
"L  c #A5A3A3",
"P  c #A5A5A5",
"I  c #A7A4A4",
"U  c gray65",
"Y  c #ACA7A7",
"T  c gray66",
"R  c #A9A9A9",
"E  c #AFA8A8",
"W  c #AFABAB",
"Q  c gray68",
"!  c #AEAEAE",
"~  c #B5A1A1",
"^  c #B5A3A3",
"/  c #B3A5A5",
"(  c #B3A7A7",
")  c #B6A5A5",
"_  c #BCA1A1",
"`  c #BCA6A6",
"'  c #B2A9A9",
"]  c #B1AAAA",
"[  c #B0ADAD",
"{  c #B5ACAC",
"}  c #B4ADAD",
"|  c #B7ADAD",
" . c #B8ABAB",
".. c #B9ABAB",
"X. c #BDABAB",
"o. c gray69",
"O. c #B1B1B1",
"+. c #B2B2B2",
"@. c gray70",
"#. c #B7B4B4",
"$. c #B6B6B6",
"%. c #BBB0B0",
"&. c #B8B2B2",
"*. c #B9B3B3",
"=. c #BEB0B0",
"-. c #BEB2B2",
";. c #B9B4B4",
":. c #B9B5B5",
">. c #BDB7B7",
",. c gray72",
"<. c #BBBABA",
"1. c #BCB8B8",
"2. c #BDBCBC",
"3. c gray",
"4. c #C58D8D",
"5. c #C68D8D",
"6. c #C98A8A",
"7. c #C19090",
"8. c #C89B9B",
"9. c #C0A1A1",
"0. c #C7A5A5",
"q. c #C1AAAA",
"w. c #CCACAC",
"e. c #C1B1B1",
"r. c #C5B3B3",
"t. c #C0B4B4",
"y. c #C0B7B7",
"u. c #C8B0B0",
"i. c #CCB1B1",
"p. c #CEB3B3",
"a. c #C2BABA",
"s. c #C2BDBD",
"d. c #C2BEBE",
"f. c #C3BFBF",
"g. c #CDBDBD",
"h. c #D0B6B6",
"j. c #D4B9B9",
"k. c #D5BBBB",
"l. c #D2BEBE",
"z. c #C0C0C0",
"x. c #C3C2C2",
"c. c #C3C3C3",
"v. c #C4C0C0",
"b. c #C7C6C6",
"n. c gray78",
"m. c #C8C5C5",
"M. c #C9C7C7",
"N. c #CCC5C5",
"B. c #C8C8C8",
"V. c gray79",
"C. c #CBCBCB",
"Z. c #CDC9C9",
"A. c #CCCBCB",
"S. c #CDCCCC",
"D. c #CDCDCD",
"F. c #CECDCD",
"G. c #CECECE",
"H. c #D7CACA",
"J. c #D8CFCF",
"K. c #DACFCF",
"L. c gray82",
"P. c #D3D0D0",
"I. c #D3D2D2",
"U. c LightGray",
"Y. c #D7D3D3",
"T. c gray83",
"R. c #D6D4D4",
"E. c #D9D3D3",
"W. c #DED1D1",
"Q. c #D9D4D4",
"!. c #D8D7D7",
"~. c #DADADA",
"^. c gray86",
"/. c #DCDADA",
"(. c gainsboro",
"). c #E6D3D3",
"_. c #E2D4D4",
"`. c #E2D7D7",
"'. c gray88",
"]. c #E3E2E2",
"[. c #E4E4E4",
"{. c #E8E6E6",
"}. c gray91",
"|. c #EAEAEA",
" X c #EBEAEA",
".X c #F1EEEE",
"XX c gray94",
"oX c #F5F3F3",
"OX c None",
/* pixels */
"OXOXOXOXOX}.{.].Z.G.z.OXOXOXOXOX",
"OXOXOX{.oX.XT.%.>.m.s.;.L OXOXOX",
"OXOX}.XXM.!.].t.4.v $.&.] U OXOX",
"OXZ./.v.G.$.^.}.}.].C.C.*.Y Z OX",
"OXR.U.[.# d g z l f h 7 3.{ R OX",
"a.U.V c 8 e >   . 6 s M +.u.[ b ",
"s.s.p k ! @ m % X >.R.c.[ 4  .L ",
"r.w.n k ! 2 : = 3 ; 7.c.+.F 4.G ",
"q.8.C k ! 1 | O < i q - +.c.u._ ",
"^ _ m.c ! 0 N.O < j I # [ S p.` ",
"] J ] U ! m.(.O & w %.+ ! | h.e.",
"OXH / 2.T m.(.O o t a u 9 j.l.OX",
"OX] D X.r 6.^.5 , N 0.* j._.K.OX",
"OXOX&.( ( B s.,.U.C y `._.!.OXOX",
"OXOXOXW [ >.=./ g.E.K.).T.OXOXOX",
"OXOXOXOXOX1.c.*.C.H.F.OXOXOXOXOX"
};
